Zwart - Zwart gaat over dingen die je altijd al hebt willen, maar nooit hebt durven doen. Tegengehouden door moraal, omgeving of partner. Behalve die ene dag... Met 250 kilometer per uur over de snelweg scheuren. Een kleine en weerloze puber die je op zijn (ongetwijfeld gejatte) scootertje afsnijdt eens goed op zijn bek slaan. De hele dag achter een parkeerwacht aanlopen en vragen of hij een kick krijgt van het zetten van wielklemmen. Dat is volgens Lebbis Zwart. Lebbis: "Iedereen heeft een beetje zwart. Voor het evenwicht. Behalve moeder Teresa. Maar die is dood."

General
Format                           : AVI
Format/Info                      : Audio Video Interleave
File size                        : 656 MiB
Duration                         : 1h 13mn
Overall bit rate                 : 1 254 Kbps

Video
ID                               : 0
Format                           : MPEG-4 Visual
Format profile                   : Simple@L3
Format settings, BVOP            : No
Format settings, QPel            : No
Format settings, GMC             : No warppoints
Format settings, Matrix          : Default (H.263)
Codec ID                         : XVID
Codec ID/Hint                    : XviD
Duration                         : 1h 13mn
Bit rate                         : 800 Kbps
Width                            : 672 pixels
Height                           : 368 pixels
Display aspect ratio             : 16:9
Frame rate                       : 30.000 fps
Color space                      : YUV
Chroma subsampling               : 4:2:0
Bit depth                        : 8 bits
Scan type                        : Progressive
Bits/(Pixel*Frame)               : 0.108
Stream size                      : 418 MiB (64%)
Writing library                  : XviD 1.1.2 (UTC 2006-11-01)

Audio
ID                               : 1
Format                           : AC-3
Format/Info                      : Audio Coding 3
Mode extension                   : CM (complete main)
Codec ID                         : 2000
Duration                         : 1h 13mn
Bit rate mode                    : Constant
Bit rate                         : 448 Kbps
Channel(s)                       : 2 channels
Channel positions                : Front: L R
Sampling rate                    : 48.0 KHz
Bit depth                        : 16 bits
Stream size                      : 234 MiB (36%)
Alignment                        : Split accross interleaves
Interleave, duration             : 500 ms (15.00 video frames)
Interleave, preload duration     : 500 ms

Leave your comment about Audio/Video/Movie.